<svg width="231" height="161" viewBox="0 0 231 161" fill="none" xmlns="http://www.w3.org/2000/svg">
<path d="M195.066 70.325C190.059 30.8854 156.291 0.291656 115.5 0.291656C83.9207 0.291656 56.4894 18.7396 43.9655 47.8323C19.353 55.2 0.916504 78.4375 0.916504 103.417C0.916504 133.861 24.853 158.589 54.8623 160.376V160.708H184.135V160.674L184.25 160.708C209.527 160.708 230.083 140.152 230.083 114.875C230.07 104.603 226.613 94.6317 220.265 86.5557C213.917 78.4796 205.045 72.7649 195.066 70.325ZM69.6665 80.5H104.042V46.125H126.958V80.5H161.333L115.5 137.792L69.6665 80.5Z" fill="#191101"/>
</svg>
