<svg width="32" height="22" viewBox="0 0 32 22" fill="none" xmlns="http://www.w3.org/2000/svg">
<path d="M32 19.25V2.75C32 1.22833 30.7396 0 29.1781 0H2.82187C1.26044 0 0 1.22833 0 2.75V19.25C0 20.7717 1.26044 22 2.82187 22H29.1781C30.7396 22 32 20.7717 32 19.25ZM29.5356 2.54833C30.1564 3.15333 29.8178 3.77667 29.4791 4.08833L21.8413 10.9083L29.1781 18.3517C29.4039 18.6083 29.5544 19.0117 29.291 19.2867C29.0464 19.58 28.4821 19.5617 28.2375 19.3783L20.0165 12.54L15.9906 16.115L11.9835 12.54L3.76249 19.3783C3.51793 19.5617 2.95356 19.58 2.70899 19.2867C2.44562 19.0117 2.59612 18.6083 2.82187 18.3517L10.1587 10.9083L2.52087 4.08833C2.18225 3.77667 1.84362 3.15333 2.46443 2.54833C3.08524 1.94333 3.72487 2.23667 4.25162 2.67667L15.9906 11.9167L27.7484 2.67667C28.2751 2.23667 28.9148 1.94333 29.5356 2.54833V2.54833Z" fill="#191101"/>
</svg>
