<svg width="20" height="20" viewBox="0 0 20 20" fill="none" xmlns="http://www.w3.org/2000/svg">
<path d="M10 0.375C4.68477 0.375 0.375 4.68477 0.375 10C0.375 15.3152 4.68477 19.625 10 19.625C15.3152 19.625 19.625 15.3152 19.625 10C19.625 4.68477 15.3152 0.375 10 0.375ZM10.116 14.7695C7.75274 14.7695 6.39062 13.1969 6.39062 10.5822V9.45859C6.39062 6.82461 7.75273 5.23047 10.1139 5.23047C12.1398 5.23047 13.6094 6.53457 13.6094 8.39727C13.6094 8.45312 13.5643 8.49824 13.5084 8.49824H12.2902C12.2 8.49824 12.127 8.42949 12.1184 8.33926C12.0324 7.27578 11.259 6.54746 10.1203 6.54746C8.71738 6.54746 7.92676 7.58945 7.92676 9.45859V10.5887C7.92676 12.4299 8.71953 13.459 10.1203 13.459C11.2547 13.459 12.026 12.7779 12.1184 11.7875C12.127 11.6994 12.2 11.6307 12.2902 11.6307H13.5105C13.5664 11.6307 13.6115 11.6758 13.6115 11.7316C13.6115 13.5062 12.1355 14.7695 10.116 14.7695V14.7695Z" fill="#191101"/>
</svg>
